<svg width="612" height="84" viewBox="0 0 612 84" fill="none" xmlns="http://www.w3.org/2000/svg">
<rect width="612" height="84" fill="#EF3B24"/>
<path d="M28.88 52V35.2H54.416V39.28H34.4V41.536H49.448C50.792 41.536 51.944 41.744 52.904 42.16C53.864 42.576 54.592 43.176 55.088 43.96C55.6 44.728 55.856 45.664 55.856 46.768C55.856 47.584 55.712 48.32 55.424 48.976C55.136 49.616 54.712 50.168 54.152 50.632C53.608 51.08 52.936 51.424 52.136 51.664C51.352 51.888 50.456 52 49.448 52H28.88ZM34.4 45.496V48.04H48.44C48.856 48.04 49.192 48 49.448 47.92C49.704 47.824 49.896 47.68 50.024 47.488C50.152 47.296 50.216 47.056 50.216 46.768C50.216 46.464 50.152 46.224 50.024 46.048C49.896 45.856 49.704 45.72 49.448 45.64C49.192 45.544 48.856 45.496 48.44 45.496H34.4ZM60.5441 52V35.2H79.1681C80.4481 35.2 81.5921 35.344 82.6001 35.632C83.6241 35.92 84.4881 36.344 85.1921 36.904C85.9121 37.464 86.4561 38.144 86.8241 38.944C87.1921 39.728 87.3761 40.632 87.3761 41.656C87.3761 43 87.0481 44.16 86.3921 45.136C85.7521 46.096 84.8161 46.832 83.5841 47.344C82.3681 47.856 80.8961 48.112 79.1681 48.112H66.3041V52H60.5441ZM66.3041 39.52V43.792H78.2561C79.0081 43.792 79.6241 43.72 80.1041 43.576C80.5841 43.416 80.9361 43.184 81.1601 42.88C81.3841 42.56 81.4961 42.16 81.4961 41.68C81.4961 41.168 81.3841 40.76 81.1601 40.456C80.9361 40.136 80.5841 39.904 80.1041 39.76C79.6241 39.6 79.0081 39.52 78.2561 39.52H66.3041ZM95.2831 52L99.7951 47.08L87.8191 35.2H94.7791L103.203 43.456L110.715 35.2H117.507L102.219 52H95.2831ZM117.669 43.6C117.669 42.48 117.885 41.464 118.317 40.552C118.765 39.624 119.413 38.808 120.261 38.104C121.125 37.384 122.181 36.792 123.429 36.328C124.693 35.848 126.141 35.488 127.773 35.248C129.421 34.992 131.253 34.864 133.269 34.864C136.021 34.864 138.397 35.08 140.397 35.512C142.397 35.944 144.005 36.584 145.221 37.432C146.437 38.28 147.253 39.336 147.669 40.6L141.453 41.824C141.213 41.216 140.765 40.72 140.109 40.336C139.453 39.936 138.557 39.648 137.421 39.472C136.301 39.28 134.917 39.184 133.269 39.184C131.925 39.184 130.725 39.24 129.669 39.352C128.613 39.464 127.701 39.632 126.933 39.856C126.165 40.08 125.525 40.368 125.013 40.72C124.517 41.072 124.149 41.488 123.909 41.968C123.669 42.448 123.549 42.992 123.549 43.6C123.549 44.224 123.669 44.776 123.909 45.256C124.149 45.72 124.517 46.128 125.013 46.48C125.525 46.832 126.165 47.12 126.933 47.344C127.701 47.568 128.605 47.736 129.645 47.848C130.701 47.96 131.909 48.016 133.269 48.016C134.965 48.016 136.381 47.92 137.517 47.728C138.653 47.536 139.541 47.24 140.181 46.84C140.837 46.424 141.269 45.904 141.477 45.28L147.597 46.456C147.165 47.768 146.341 48.864 145.125 49.744C143.925 50.608 142.333 51.256 140.349 51.688C138.381 52.12 136.021 52.336 133.269 52.336C131.589 52.336 130.037 52.248 128.613 52.072C127.205 51.912 125.917 51.664 124.749 51.328C123.597 50.992 122.581 50.576 121.701 50.08C120.821 49.584 120.077 49.016 119.469 48.376C118.877 47.72 118.429 47 118.125 46.216C117.821 45.416 117.669 44.544 117.669 43.6ZM151.739 52V35.2H157.499V41.272H175.091V35.2H180.851V52H175.091V45.592H157.499V52H151.739ZM192.374 52H186.614V35.2H192.374V46.648L209.366 35.2H215.126V52H209.366V40.552L192.374 52ZM220.88 52V35.2H226.64V42.208L240.368 35.2H249.752L233.888 43.096L250.16 52H240.104L226.64 44.632V52H220.88ZM276.742 52L274.462 49.072H259.366L257.086 52H250.414L264.046 35.2H269.998L283.63 52H276.742ZM271.39 45.112L266.926 39.352L262.438 45.112H271.39ZM286.025 52V47.392H292.025V52H286.025ZM297.31 52V35.2H303.07V42.208L316.798 35.2H326.182L310.318 43.096L326.59 52H316.534L303.07 44.632V52H297.31ZM342.289 52.336C340.225 52.336 338.353 52.216 336.673 51.976C335.009 51.736 333.537 51.384 332.257 50.92C330.993 50.44 329.929 49.856 329.065 49.168C328.217 48.464 327.569 47.656 327.121 46.744C326.689 45.816 326.473 44.784 326.473 43.648C326.473 42.496 326.689 41.456 327.121 40.528C327.553 39.6 328.201 38.784 329.065 38.08C329.929 37.376 330.993 36.784 332.257 36.304C333.537 35.824 335.009 35.464 336.673 35.224C338.353 34.984 340.225 34.864 342.289 34.864C344.353 34.864 346.217 34.984 347.881 35.224C349.561 35.464 351.033 35.824 352.297 36.304C353.577 36.784 354.649 37.376 355.513 38.08C356.377 38.784 357.025 39.6 357.457 40.528C357.889 41.456 358.105 42.496 358.105 43.648C358.105 44.784 357.881 45.816 357.433 46.744C357.001 47.656 356.353 48.464 355.489 49.168C354.641 49.856 353.577 50.44 352.297 50.92C351.033 51.384 349.561 51.736 347.881 51.976C346.217 52.216 344.353 52.336 342.289 52.336ZM342.289 48.016C343.665 48.016 344.889 47.96 345.961 47.848C347.049 47.736 347.985 47.568 348.769 47.344C349.553 47.12 350.201 46.84 350.713 46.504C351.225 46.152 351.601 45.744 351.841 45.28C352.097 44.8 352.225 44.256 352.225 43.648C352.225 43.024 352.097 42.472 351.841 41.992C351.601 41.512 351.225 41.096 350.713 40.744C350.201 40.392 349.553 40.104 348.769 39.88C347.985 39.64 347.049 39.464 345.961 39.352C344.889 39.24 343.665 39.184 342.289 39.184C340.913 39.184 339.681 39.24 338.593 39.352C337.521 39.464 336.593 39.64 335.809 39.88C335.025 40.104 334.377 40.392 333.865 40.744C333.353 41.096 332.969 41.512 332.713 41.992C332.473 42.472 332.353 43.024 332.353 43.648C332.353 44.256 332.473 44.8 332.713 45.28C332.969 45.744 333.353 46.152 333.865 46.504C334.377 46.84 335.025 47.12 335.809 47.344C336.593 47.568 337.521 47.736 338.593 47.848C339.681 47.96 340.913 48.016 342.289 48.016ZM362.185 52V35.2H383.065C384.089 35.2 385.009 35.296 385.825 35.488C386.657 35.68 387.369 35.96 387.961 36.328C388.553 36.696 389.009 37.152 389.329 37.696C389.649 38.224 389.809 38.832 389.809 39.52C389.809 39.984 389.729 40.432 389.569 40.864C389.409 41.28 389.153 41.672 388.801 42.04C388.465 42.392 388.025 42.704 387.481 42.976C387.209 43.12 386.897 43.248 386.545 43.36C387.265 43.52 387.881 43.728 388.393 43.984C389.145 44.384 389.697 44.88 390.049 45.472C390.417 46.048 390.601 46.712 390.601 47.464C390.601 48.408 390.337 49.224 389.809 49.912C389.281 50.584 388.513 51.104 387.505 51.472C386.513 51.824 385.305 52 383.881 52H362.185ZM367.825 45.376V48.4H382.321C382.849 48.4 383.281 48.352 383.617 48.256C383.953 48.144 384.201 47.976 384.361 47.752C384.521 47.528 384.601 47.24 384.601 46.888C384.601 46.536 384.521 46.248 384.361 46.024C384.201 45.8 383.953 45.64 383.617 45.544C383.281 45.432 382.849 45.376 382.321 45.376H367.825ZM367.825 38.8V41.728H381.841C382.209 41.728 382.521 41.704 382.777 41.656C383.033 41.592 383.249 41.504 383.425 41.392C383.601 41.264 383.729 41.112 383.809 40.936C383.889 40.744 383.929 40.52 383.929 40.264C383.929 39.928 383.857 39.656 383.713 39.448C383.569 39.224 383.337 39.064 383.017 38.968C382.713 38.856 382.321 38.8 381.841 38.8H367.825ZM409.414 52.336C407.35 52.336 405.478 52.216 403.798 51.976C402.134 51.736 400.662 51.384 399.382 50.92C398.118 50.44 397.054 49.856 396.19 49.168C395.342 48.464 394.694 47.656 394.246 46.744C393.814 45.816 393.598 44.784 393.598 43.648C393.598 42.496 393.814 41.456 394.246 40.528C394.678 39.6 395.326 38.784 396.19 38.08C397.054 37.376 398.118 36.784 399.382 36.304C400.662 35.824 402.134 35.464 403.798 35.224C405.478 34.984 407.35 34.864 409.414 34.864C411.478 34.864 413.342 34.984 415.006 35.224C416.686 35.464 418.158 35.824 419.422 36.304C420.702 36.784 421.774 37.376 422.638 38.08C423.502 38.784 424.15 39.6 424.582 40.528C425.014 41.456 425.23 42.496 425.23 43.648C425.23 44.784 425.006 45.816 424.558 46.744C424.126 47.656 423.478 48.464 422.614 49.168C421.766 49.856 420.702 50.44 419.422 50.92C418.158 51.384 416.686 51.736 415.006 51.976C413.342 52.216 411.478 52.336 409.414 52.336ZM409.414 48.016C410.79 48.016 412.014 47.96 413.086 47.848C414.174 47.736 415.11 47.568 415.894 47.344C416.678 47.12 417.326 46.84 417.838 46.504C418.35 46.152 418.726 45.744 418.966 45.28C419.222 44.8 419.35 44.256 419.35 43.648C419.35 43.024 419.222 42.472 418.966 41.992C418.726 41.512 418.35 41.096 417.838 40.744C417.326 40.392 416.678 40.104 415.894 39.88C415.11 39.64 414.174 39.464 413.086 39.352C412.014 39.24 410.79 39.184 409.414 39.184C408.038 39.184 406.806 39.24 405.718 39.352C404.646 39.464 403.718 39.64 402.934 39.88C402.15 40.104 401.502 40.392 400.99 40.744C400.478 41.096 400.094 41.512 399.838 41.992C399.598 42.472 399.478 43.024 399.478 43.648C399.478 44.256 399.598 44.8 399.838 45.28C400.094 45.744 400.478 46.152 400.99 46.504C401.502 46.84 402.15 47.12 402.934 47.344C403.718 47.568 404.646 47.736 405.718 47.848C406.806 47.96 408.038 48.016 409.414 48.016ZM429.31 52V35.2H447.934C449.214 35.2 450.358 35.344 451.366 35.632C452.39 35.92 453.254 36.344 453.958 36.904C454.678 37.464 455.222 38.144 455.59 38.944C455.958 39.728 456.142 40.632 456.142 41.656C456.142 43 455.814 44.16 455.158 45.136C454.518 46.096 453.582 46.832 452.35 47.344C451.134 47.856 449.662 48.112 447.934 48.112H435.07V52H429.31ZM435.07 39.52V43.792H447.022C447.774 43.792 448.39 43.72 448.87 43.576C449.35 43.416 449.702 43.184 449.926 42.88C450.15 42.56 450.262 42.16 450.262 41.68C450.262 41.168 450.15 40.76 449.926 40.456C449.702 40.136 449.35 39.904 448.87 39.76C448.39 39.6 447.774 39.52 447.022 39.52H435.07ZM460.318 52V35.2H466.078V42.208L479.806 35.2H489.19L473.326 43.096L489.598 52H479.542L466.078 44.632V52H460.318ZM497.765 52H492.005V35.2H497.765V46.648L514.757 35.2H520.517V52H514.757V40.552L497.765 52ZM526.271 52V35.2H532.031V41.272H549.623V35.2H555.383V52H549.623V45.592H532.031V52H526.271ZM561.146 52V35.2H584.186V39.52H566.906V52H561.146Z" fill="white"/>
</svg>
